<svg version="1.0" xmlns="http://www.w3.org/2000/svg"
 width="500.000000pt" height="500.000000pt" viewBox="0 0 500.000000 500.000000"
 preserveAspectRatio="xMidYMid meet">

<g transform="translate(0.000000,500.000000) scale(0.100000,-0.100000)"
fill="#000000" stroke="none">
<path d="M0 2500 l0 -2500 2500 0 2500 0 0 2500 0 2500 -2500 0 -2500 0 0
-2500z m1465 888 c-4 -46 -11 -200 -14 -343 l-6 -260 -49 -3 -49 -3 7 248 c4
136 11 272 15 301 4 29 5 54 2 57 -7 8 -340 5 -344 -3 -2 -4 0 -50 4 -102 4
-52 8 -185 10 -295 l3 -200 -40 -3 -40 -3 -13 293 c-7 161 -16 317 -18 346
l-5 52 272 0 272 0 -7 -82z m1169 60 c-7 -40 -13 -167 -20 -420 l-7 -248 -50
0 -49 0 7 213 c3 116 11 250 16 296 8 67 7 86 -3 93 -7 4 -87 8 -177 7 l-164
-1 7 -81 c3 -45 9 -182 13 -304 l6 -223 -46 0 -47 0 0 163 c0 147 -11 353 -25
480 l-6 47 274 0 274 0 -3 -22z m662 -25 c-3 -27 -9 -182 -12 -345 l-7 -298
-50 0 -50 0 6 238 c4 130 10 267 13 305 l7 67 -172 -1 c-94 -1 -173 -4 -175
-8 -2 -3 0 -53 5 -111 5 -58 10 -192 11 -298 l3 -192 -42 0 -43 0 0 63 c-1 88
-17 446 -26 545 l-7 82 273 0 273 0 -7 -47z m-2202 -815 c8 -14 7 -24 -3 -40
-10 -16 -10 -23 -2 -26 21 -7 32 -41 21 -62 -17 -32 -55 -42 -95 -25 -19 7
-35 19 -35 25 0 7 7 5 16 -4 34 -34 93 -9 79 34 -6 18 -17 24 -37 21 -12 -2
-9 9 7 25 19 20 20 64 1 64 -8 0 -22 -10 -30 -22 -12 -16 -19 -19 -27 -11 -8
8 -4 15 13 27 28 21 77 17 92 -6z m355 -14 c19 -22 22 -35 18 -68 -8 -54 -37
-75 -104 -76 l-53 0 0 91 0 92 58 -6 c46 -5 62 -11 81 -33z m569 20 c45 -31
19 -84 -42 -84 -24 0 -26 -4 -26 -40 0 -33 -3 -40 -20 -40 -19 0 -20 7 -20 90
l0 90 43 0 c23 0 53 -7 65 -16z m280 9 c-13 -3 -18 -15 -18 -44 0 -32 3 -39
20 -39 26 0 40 28 29 57 -7 19 -5 23 11 23 12 0 25 -11 32 -26 11 -23 10 -29
-10 -45 l-23 -18 23 -33 c13 -18 28 -36 33 -40 6 -4 1 -8 -11 -8 -24 0 -45 16
-67 53 -25 39 -40 34 -35 -13 3 -36 1 -40 -19 -40 -22 0 -23 3 -23 83 0 46 3
87 7 90 3 4 20 6 37 6 17 -1 23 -3 14 -6z m350 -86 c3 -85 2 -87 -20 -87 -22
0 -23 2 -21 87 1 49 2 89 2 91 1 2 9 2 19 0 14 -3 17 -17 20 -91z m292 13 c29
-55 46 -77 52 -68 5 9 8 6 8 -10 0 -19 -5 -23 -26 -20 -22 2 -35 17 -68 77
l-41 73 -6 -78 -5 -79 -2 93 c-2 90 -2 92 21 92 20 0 32 -15 67 -80z m400 69
c0 -7 -10 -9 -25 -5 l-25 6 0 -85 c0 -78 -2 -85 -20 -85 -18 0 -20 7 -20 86
l0 86 -30 -7 c-19 -4 -30 -3 -30 4 0 7 28 11 75 11 48 0 75 -4 75 -11z m320 0
c0 -7 -14 -8 -40 -4 l-40 7 0 -36 c0 -34 2 -36 33 -38 l32 -1 -32 -4 c-31 -4
-33 -7 -33 -45 l0 -40 40 4 c22 2 40 0 40 -4 0 -5 -27 -8 -60 -8 l-60 0 0 90
0 90 60 0 c37 0 60 -4 60 -11z m303 0 c41 -22 46 -40 17 -69 l-20 -20 22 -33
c13 -17 28 -35 33 -39 6 -4 1 -8 -11 -8 -24 0 -45 16 -67 53 -25 39 -40 34
-35 -13 3 -36 1 -40 -19 -40 -22 0 -23 3 -23 90 l0 90 41 0 c22 0 50 -5 62
-11z m-966 -81 c-2 -18 -4 -6 -4 27 0 33 2 48 4 33 2 -15 2 -42 0 -60z m-1956
-300 c3 -75 -4 -475 -11 -548 -4 -52 -5 -98 -1 -101 3 -3 82 -4 175 -1 l168 4
-6 57 c-3 31 -9 179 -12 329 l-7 272 51 0 52 0 0 -219 c0 -192 10 -402 25
-510 l4 -34 -272 5 -272 6 1 48 c0 27 5 152 12 277 7 126 12 273 12 328 l0 99
40 0 c25 0 40 -5 41 -12z m1166 -245 c-4 -142 -10 -292 -13 -334 l-7 -75 174
4 c96 2 174 5 175 6 1 0 -2 35 -6 76 -5 42 -11 189 -15 328 l-8 252 52 0 51 0
0 -182 c0 -167 9 -348 26 -517 l7 -64 -273 6 c-150 3 -273 7 -275 9 -2 2 3 80
11 173 7 94 13 261 14 373 l0 202 47 0 46 0 -6 -257z m662 -15 c-4 -150 -10
-301 -14 -335 l-8 -62 39 3 c22 2 96 4 167 5 l127 1 0 330 0 330 50 0 50 0 0
-304 0 -304 65 -7 c35 -4 129 -2 209 4 166 13 308 46 497 116 67 24 123 44
125 42 1 -1 -22 -52 -50 -114 -29 -61 -60 -130 -69 -154 l-16 -42 -343 4
c-189 2 -440 3 -558 3 -223 -2 -379 1 -385 7 -1 2 3 67 10 144 8 77 17 245 21
373 l7 232 41 0 41 0 -6 -272z"/>
<path d="M1350 2540 c0 -78 1 -80 24 -80 33 0 48 22 48 75 1 49 -21 85 -54 85
-16 0 -18 -9 -18 -80z"/>
<path d="M1950 2579 c0 -36 2 -40 23 -37 42 6 33 77 -10 78 -8 0 -13 -15 -13
-41z"/>
<path d="M3900 2580 c0 -33 3 -40 20 -40 10 0 24 9 30 20 14 26 -3 60 -30 60
-17 0 -20 -7 -20 -40z"/>
<path d="M3913 1617 c-39 -12 -74 -25 -77 -28 -3 -3 28 -6 70 -6 71 0 76 1 85
24 15 40 20 40 -78 10z"/>
</g>
</svg>
